<svg width="5" height="34" viewBox="0 0 5 34" fill="none" xmlns="http://www.w3.org/2000/svg">
<path d="M0 31.875C0 31.3438 0.1875 30.8984 0.5625 30.5391C0.945312 30.1797 1.44141 30 2.05078 30C2.66797 30 3.16016 30.1797 3.52734 30.5391C3.90234 30.8984 4.08984 31.3438 4.08984 31.875C4.08984 32.3984 3.90234 32.8398 3.52734 33.1992C3.16016 33.5586 2.66797 33.7383 2.05078 33.7383C1.44141 33.7383 0.945312 33.5586 0.5625 33.1992C0.1875 32.8398 0 32.3984 0 31.875Z" fill="black"/>
<path d="M0 16.875C0 16.3438 0.1875 15.8984 0.5625 15.5391C0.945312 15.1797 1.44141 15 2.05078 15C2.66797 15 3.16016 15.1797 3.52734 15.5391C3.90234 15.8984 4.08984 16.3438 4.08984 16.875C4.08984 17.3984 3.90234 17.8398 3.52734 18.1992C3.16016 18.5586 2.66797 18.7383 2.05078 18.7383C1.44141 18.7383 0.945312 18.5586 0.5625 18.1992C0.1875 17.8398 0 17.3984 0 16.875Z" fill="black"/>
<path d="M0 1.875C0 1.34375 0.1875 0.898438 0.5625 0.539062C0.945312 0.179688 1.44141 0 2.05078 0C2.66797 0 3.16016 0.179688 3.52734 0.539062C3.90234 0.898438 4.08984 1.34375 4.08984 1.875C4.08984 2.39844 3.90234 2.83984 3.52734 3.19922C3.16016 3.55859 2.66797 3.73828 2.05078 3.73828C1.44141 3.73828 0.945312 3.55859 0.5625 3.19922C0.1875 2.83984 0 2.39844 0 1.875Z" fill="black"/>
</svg>
