<svg width="250" height="66" viewBox="0 0 250 66" fill="none" xmlns="http://www.w3.org/2000/svg">
<path d="M226.909 64.7417V0.697083H235.743V20.3462C236.501 19.5619 237.624 18.7051 239.111 17.7757C240.598 16.8462 242.012 16.3815 243.353 16.3815C244.811 16.3815 246.035 16.8026 247.026 17.645C248.018 18.4873 248.761 19.62 249.257 21.0432C249.752 22.4374 250 23.9913 250 25.705V64.7417H241.166V27.5348C241.166 26.6635 240.962 25.9664 240.554 25.4436C240.175 24.8917 239.723 24.6158 239.198 24.6158C238.586 24.6158 237.857 24.9643 237.011 25.6614C236.166 26.3295 235.743 27.0846 235.743 27.927V64.7417H226.909Z" fill="#ED9C39"/>
<path d="M205.495 65.3952C201.617 65.3952 198.76 64.1899 196.923 61.7791C195.116 59.3684 194.212 56.0136 194.212 51.715V30.0618C194.212 25.734 195.116 22.3793 196.923 19.9976C198.76 17.5868 201.617 16.3815 205.495 16.3815C209.373 16.3815 212.23 17.5868 214.067 19.9976C215.933 22.4083 216.866 25.7631 216.866 30.0618V33.8086H208.032V28.929C208.032 27.5929 207.857 26.4747 207.507 25.5743C207.157 24.6739 206.486 24.2237 205.495 24.2237C204.504 24.2237 203.848 24.6884 203.527 25.6178C203.206 26.5182 203.046 27.622 203.046 28.929V52.8477C203.046 54.1547 203.206 55.273 203.527 56.2024C203.848 57.1028 204.504 57.553 205.495 57.553C206.486 57.553 207.157 57.1028 207.507 56.2024C207.857 55.302 208.032 54.1838 208.032 52.8477V47.9681H216.866V51.715C216.866 56.0136 215.933 59.3684 214.067 61.7791C212.23 64.1899 209.373 65.3952 205.495 65.3952Z" fill="#ED9C39"/>
<path d="M167.462 65.4388C165.421 65.4388 163.657 64.4077 162.17 62.3455C160.683 60.2833 159.939 57.1319 159.939 52.8913C159.939 48.7959 160.814 45.4993 162.563 43.0014C164.342 40.5035 166.995 38.3396 170.523 36.5098C171.631 35.9289 172.564 35.4061 173.322 34.9413C174.08 34.4766 174.546 34.0409 174.721 33.6343V28.4062C174.721 27.2153 174.575 26.1987 174.284 25.3564C174.021 24.4851 173.351 24.0494 172.272 24.0494C171.281 24.0494 170.61 24.5141 170.26 25.4436C169.911 26.344 169.736 27.4767 169.736 28.8419V31.1074H160.902V29.1033C160.902 26.4892 161.412 24.2382 162.432 22.3503C163.482 20.4333 164.896 18.9665 166.674 17.9499C168.482 16.9043 170.523 16.3815 172.797 16.3815C174.984 16.3815 176.879 16.8898 178.482 17.9063C180.086 18.8939 181.325 20.2735 182.2 22.0453C183.103 23.788 183.555 25.7921 183.555 28.0576V56.4638C183.555 58.5841 183.614 60.2397 183.73 61.4306C183.847 62.5924 183.993 63.6961 184.168 64.7417H175.508C175.129 64.277 174.896 63.5944 174.809 62.694C174.75 61.7936 174.721 61.1982 174.721 60.9078H174.109C173.38 62.2438 172.447 63.333 171.31 64.1753C170.202 65.0176 168.919 65.4388 167.462 65.4388ZM171.048 56.8124C172.068 56.8124 172.928 56.4638 173.628 55.7668C174.357 55.0697 174.721 54.3145 174.721 53.5012V42.1736C172.593 43.074 171.033 44.4391 170.042 46.269C169.08 48.0698 168.599 50.1029 168.599 52.3685C168.599 53.356 168.788 54.3435 169.167 55.3311C169.546 56.3186 170.173 56.8124 171.048 56.8124Z" fill="#ED9C39"/>
<path d="M139.225 65.3517C135.697 65.3517 132.928 64.1753 130.916 61.8227C128.904 59.441 127.898 56.4348 127.898 52.8041V28.929C127.898 25.2983 128.904 22.3067 130.916 19.954C132.928 17.5723 135.697 16.3815 139.225 16.3815C142.724 16.3815 145.479 17.5723 147.491 19.954C149.532 22.3067 150.552 25.2983 150.552 28.929V52.8041C150.552 56.4348 149.532 59.441 147.491 61.8227C145.479 64.1753 142.724 65.3517 139.225 65.3517ZM139.225 57.6837C140.362 57.6837 141.15 57.2335 141.587 56.3331C142.024 55.4037 142.243 54.2274 142.243 52.8041V28.929C142.243 27.4767 142.024 26.3004 141.587 25.4C141.15 24.4996 140.362 24.0494 139.225 24.0494C138.088 24.0494 137.301 24.4996 136.864 25.4C136.426 26.3004 136.208 27.4767 136.208 28.929V52.8041C136.208 54.2564 136.426 55.4327 136.864 56.3331C137.301 57.2335 138.088 57.6837 139.225 57.6837Z" fill="#ED9C39"/>
<path d="M106.921 65.3952C103.044 65.3952 100.186 64.1899 98.3496 61.7791C96.542 59.3684 95.6382 56.0136 95.6382 51.715V30.0618C95.6382 25.734 96.542 22.3793 98.3496 19.9976C100.186 17.5868 103.044 16.3815 106.921 16.3815C110.799 16.3815 113.656 17.5868 115.493 19.9976C117.359 22.4083 118.292 25.7631 118.292 30.0618V33.8086H109.458V28.929C109.458 27.5929 109.283 26.4747 108.933 25.5743C108.583 24.6739 107.913 24.2237 106.921 24.2237C105.93 24.2237 105.274 24.6884 104.953 25.6178C104.633 26.5182 104.472 27.622 104.472 28.929V52.8477C104.472 54.1547 104.633 55.273 104.953 56.2024C105.274 57.1028 105.93 57.553 106.921 57.553C107.913 57.553 108.583 57.1028 108.933 56.2024C109.283 55.302 109.458 54.1838 109.458 52.8477V47.9681H118.292V51.715C118.292 56.0136 117.359 59.3684 115.493 61.7791C113.656 64.1899 110.799 65.3952 106.921 65.3952Z" fill="#404CB5"/>
<path d="M74.7798 64.7417V0.697083H84.2261V64.7417H74.7798Z" fill="#404CB5"/>
<path d="M37.9075 64.7417V0.697083H47.3538C50.9399 0.697083 53.9283 1.4813 56.319 3.04974C58.7389 4.61818 60.5466 6.84014 61.7419 9.71562C62.9373 12.5911 63.535 15.9749 63.535 19.8669C63.535 23.759 62.9081 27.1137 61.6545 29.9311C60.4008 32.7485 58.564 34.9559 56.1441 36.5534C53.7534 38.1218 50.8233 38.9786 47.3538 39.1239V64.7417H37.9075ZM47.3538 29.539C49.0156 29.539 50.3276 29.2195 51.2897 28.5805C52.2519 27.9124 52.937 26.8668 53.3452 25.4436C53.7825 24.0204 54.0012 22.1905 54.0012 19.954C54.0012 17.6885 53.7825 15.8441 53.3452 14.4209C52.937 12.9977 52.2373 11.9521 51.246 11.2841C50.2839 10.616 48.9865 10.282 47.3538 10.282V29.539Z" fill="#404CB5"/>
<path d="M12.5951 65.4388C9.97111 65.4388 7.71158 64.8289 5.81648 63.609C3.95054 62.3891 2.50736 60.7335 1.48692 58.6423C0.49564 56.551 0 54.1983 0 51.5843V13.8546C0 11.2114 0.49564 8.85879 1.48692 6.79658C2.50736 4.70532 3.95054 3.04974 5.81648 1.82984C7.71158 0.609948 9.97111 0 12.5951 0C15.2191 0 17.464 0.609948 19.33 1.82984C21.2251 3.04974 22.6682 4.70532 23.6595 6.79658C24.68 8.88783 25.1902 11.2405 25.1902 13.8546V51.5843C25.1902 54.1983 24.68 56.551 23.6595 58.6423C22.6682 60.7335 21.2251 62.3891 19.33 63.609C17.464 64.8289 15.2191 65.4388 12.5951 65.4388ZM12.5951 56.2896C13.7613 56.2896 14.5777 55.8103 15.0441 54.8519C15.5106 53.8643 15.7439 52.7751 15.7439 51.5843V13.8546C15.7439 12.6637 15.496 11.589 15.0004 10.6305C14.5048 9.64301 13.703 9.14924 12.5951 9.14924C11.5163 9.14924 10.7146 9.64301 10.1898 10.6305C9.69414 11.589 9.44632 12.6637 9.44632 13.8546V51.5843C9.44632 52.7751 9.69414 53.8643 10.1898 54.8519C10.6854 55.8103 11.4872 56.2896 12.5951 56.2896Z" fill="#404CB5"/>
</svg>
