<svg width="38" height="46" viewBox="0 0 38 46" fill="none" xmlns="http://www.w3.org/2000/svg">
<path d="M8.64 45.48C6.84 45.48 5.29 45.06 3.99 44.22C2.71 43.38 1.72 42.24 1.02 40.8C0.34 39.36 0 37.74 0 35.94V9.96004C0 8.14004 0.34 6.52004 1.02 5.10004C1.72 3.66004 2.71 2.52004 3.99 1.68004C5.29 0.840044 6.84 0.420044 8.64 0.420044C10.44 0.420044 11.98 0.840044 13.26 1.68004C14.56 2.52004 15.55 3.66004 16.23 5.10004C16.93 6.54004 17.28 8.16004 17.28 9.96004V35.94C17.28 37.74 16.93 39.36 16.23 40.8C15.55 42.24 14.56 43.38 13.26 44.22C11.98 45.06 10.44 45.48 8.64 45.48ZM8.64 39.18C9.44 39.18 10 38.85 10.32 38.19C10.64 37.51 10.8 36.76 10.8 35.94V9.96004C10.8 9.14004 10.63 8.40004 10.29 7.74004C9.95 7.06005 9.4 6.72005 8.64 6.72005C7.9 6.72005 7.35 7.06005 6.99 7.74004C6.65 8.40004 6.48 9.14004 6.48 9.96004V35.94C6.48 36.76 6.65 37.51 6.99 38.19C7.33 38.85 7.88 39.18 8.64 39.18Z" fill="#404CB5"/>
<path d="M28.54 45.06C26.74 45.06 25.19 44.64 23.89 43.8C22.61 42.96 21.62 41.82 20.92 40.38C20.24 38.94 19.9 37.32 19.9 35.52V9.54C19.9 7.72 20.24 6.1 20.92 4.68C21.62 3.24 22.61 2.1 23.89 1.26C25.19 0.42 26.74 0 28.54 0C30.34 0 31.88 0.42 33.16 1.26C34.46 2.1 35.45 3.24 36.13 4.68C36.83 6.12 37.18 7.74 37.18 9.54V35.52C37.18 37.32 36.83 38.94 36.13 40.38C35.45 41.82 34.46 42.96 33.16 43.8C31.88 44.64 30.34 45.06 28.54 45.06ZM28.54 38.76C29.34 38.76 29.9 38.43 30.22 37.77C30.54 37.09 30.7 36.34 30.7 35.52H37.18V23.08V9.54H30.7C30.7 8.72 30.53 7.98 30.19 7.32C29.85 6.64 29.3 6.3 28.54 6.3C27.8 6.3 27.25 6.64 26.89 7.32C26.55 7.98 26.38 8.72 26.38 9.54V35.52C26.38 36.34 26.55 37.09 26.89 37.77C27.23 38.43 27.78 38.76 28.54 38.76Z" fill="#ED9C39"/>
</svg>
