<svg width="402" height="107" viewBox="0 0 402 107" fill="none" xmlns="http://www.w3.org/2000/svg">
<path d="M21.06 106.12C16.86 106.12 13.2433 105.14 10.21 103.18C7.22333 101.22 4.91333 98.56 3.28 95.2C1.69333 91.84 0.9 88.06 0.9 83.86V23.24C0.9 18.9933 1.69333 15.2133 3.28 11.9C4.91333 8.54 7.22333 5.87999 10.21 3.91999C13.2433 1.95999 16.86 0.979996 21.06 0.979996C25.26 0.979996 28.8533 1.95999 31.84 3.91999C34.8733 5.87999 37.1833 8.54 38.77 11.9C40.4033 15.26 41.22 19.04 41.22 23.24V83.86C41.22 88.06 40.4033 91.84 38.77 95.2C37.1833 98.56 34.8733 101.22 31.84 103.18C28.8533 105.14 25.26 106.12 21.06 106.12ZM21.06 91.42C22.9267 91.42 24.2333 90.65 24.98 89.11C25.7267 87.5233 26.1 85.7733 26.1 83.86V23.24C26.1 21.3267 25.7033 19.6 24.91 18.06C24.1167 16.4733 22.8333 15.68 21.06 15.68C19.3333 15.68 18.05 16.4733 17.21 18.06C16.4167 19.6 16.02 21.3267 16.02 23.24V83.86C16.02 85.7733 16.4167 87.5233 17.21 89.11C18.0033 90.65 19.2867 91.42 21.06 91.42ZM61.5758 105V2.1H76.6958C82.4358 2.1 87.2191 3.36 91.0458 5.88C94.9191 8.39999 97.8124 11.97 99.7258 16.59C101.639 21.21 102.596 26.6467 102.596 32.9C102.596 39.1533 101.592 44.5433 99.5858 49.07C97.5791 53.5967 94.6391 57.1433 90.7658 59.71C86.9391 62.23 82.2491 63.6067 76.6958 63.84V105H61.5758ZM76.6958 48.44C79.3558 48.44 81.4558 47.9267 82.9958 46.9C84.5358 45.8267 85.6324 44.1467 86.2858 41.86C86.9858 39.5733 87.3358 36.6333 87.3358 33.04C87.3358 29.4 86.9858 26.4367 86.2858 24.15C85.6324 21.8633 84.5124 20.1833 82.9258 19.11C81.3858 18.0367 79.3091 17.5 76.6958 17.5V48.44ZM120.595 105V2.1H135.715V105H120.595ZM172.041 106.05C165.835 106.05 161.261 104.113 158.321 100.24C155.428 96.3667 153.981 90.9767 153.981 84.07V49.28C153.981 42.3267 155.428 36.9367 158.321 33.11C161.261 29.2367 165.835 27.3 172.041 27.3C178.248 27.3 182.821 29.2367 185.761 33.11C188.748 36.9833 190.241 42.3733 190.241 49.28V55.3H176.101V47.46C176.101 45.3133 175.821 43.5167 175.261 42.07C174.701 40.6233 173.628 39.9 172.041 39.9C170.455 39.9 169.405 40.6467 168.891 42.14C168.378 43.5867 168.121 45.36 168.121 47.46V85.89C168.121 87.99 168.378 89.7867 168.891 91.28C169.405 92.7267 170.455 93.45 172.041 93.45C173.628 93.45 174.701 92.7267 175.261 91.28C175.821 89.8333 176.101 88.0367 176.101 85.89V78.05H190.241V84.07C190.241 90.9767 188.748 96.3667 185.761 100.24C182.821 104.113 178.248 106.05 172.041 106.05Z" fill="#404CB5"/>
<path d="M223.747 105.98C218.101 105.98 213.667 104.09 210.447 100.31C207.227 96.4833 205.617 91.6533 205.617 85.82V47.46C205.617 41.6267 207.227 36.82 210.447 33.04C213.667 29.2133 218.101 27.3 223.747 27.3C229.347 27.3 233.757 29.2133 236.977 33.04C240.244 36.82 241.877 41.6267 241.877 47.46V85.82C241.877 91.6533 240.244 96.4833 236.977 100.31C233.757 104.09 229.347 105.98 223.747 105.98ZM223.747 93.66C225.567 93.66 226.827 92.9367 227.527 91.49C228.227 89.9967 228.577 88.1067 228.577 85.82V47.46C228.577 45.1267 228.227 43.2367 227.527 41.79C226.827 40.3433 225.567 39.62 223.747 39.62C221.927 39.62 220.667 40.3433 219.967 41.79C219.267 43.2367 218.917 45.1267 218.917 47.46V85.82C218.917 88.1533 219.267 90.0433 219.967 91.49C220.667 92.9367 221.927 93.66 223.747 93.66ZM268.943 106.12C265.676 106.12 262.853 104.463 260.473 101.15C258.093 97.8367 256.903 92.7733 256.903 85.96C256.903 79.38 258.303 74.0833 261.103 70.07C263.95 66.0567 268.196 62.58 273.843 59.64C275.616 58.7067 277.11 57.8667 278.323 57.12C279.536 56.3733 280.283 55.6733 280.563 55.02V46.62C280.563 44.7067 280.33 43.0733 279.863 41.72C279.443 40.32 278.37 39.62 276.643 39.62C275.056 39.62 273.983 40.3667 273.423 41.86C272.863 43.3067 272.583 45.1267 272.583 47.32V50.96H258.443V47.74C258.443 43.54 259.26 39.9233 260.893 36.89C262.573 33.81 264.836 31.4533 267.683 29.82C270.576 28.14 273.843 27.3 277.483 27.3C280.983 27.3 284.016 28.1167 286.583 29.75C289.15 31.3367 291.133 33.5533 292.533 36.4C293.98 39.2 294.703 42.42 294.703 46.06V91.7C294.703 95.1067 294.796 97.7667 294.983 99.68C295.17 101.547 295.403 103.32 295.683 105H281.823C281.216 104.253 280.843 103.157 280.703 101.71C280.61 100.263 280.563 99.3067 280.563 98.84H279.583C278.416 100.987 276.923 102.737 275.103 104.09C273.33 105.443 271.276 106.12 268.943 106.12ZM274.683 92.26C276.316 92.26 277.693 91.7 278.813 90.58C279.98 89.46 280.563 88.2467 280.563 86.94V68.74C277.156 70.1867 274.66 72.38 273.073 75.32C271.533 78.2133 270.763 81.48 270.763 85.12C270.763 86.7067 271.066 88.2933 271.673 89.88C272.28 91.4667 273.283 92.26 274.683 92.26ZM329.82 106.05C323.613 106.05 319.04 104.113 316.1 100.24C313.207 96.3667 311.76 90.9767 311.76 84.07V49.28C311.76 42.3267 313.207 36.9367 316.1 33.11C319.04 29.2367 323.613 27.3 329.82 27.3C336.027 27.3 340.6 29.2367 343.54 33.11C346.527 36.9833 348.02 42.3733 348.02 49.28V55.3H333.88V47.46C333.88 45.3133 333.6 43.5167 333.04 42.07C332.48 40.6233 331.407 39.9 329.82 39.9C328.233 39.9 327.183 40.6467 326.67 42.14C326.157 43.5867 325.9 45.36 325.9 47.46V85.89C325.9 87.99 326.157 89.7867 326.67 91.28C327.183 92.7267 328.233 93.45 329.82 93.45C331.407 93.45 332.48 92.7267 333.04 91.28C333.6 89.8333 333.88 88.0367 333.88 85.89V78.05H348.02V84.07C348.02 90.9767 346.527 96.3667 343.54 100.24C340.6 104.113 336.027 106.05 329.82 106.05ZM364.096 105V2.1H378.236V33.67C379.449 32.41 381.246 31.0333 383.626 29.54C386.006 28.0467 388.269 27.3 390.416 27.3C392.749 27.3 394.709 27.9767 396.296 29.33C397.883 30.6833 399.073 32.5033 399.866 34.79C400.659 37.03 401.056 39.5267 401.056 42.28V105H386.916V45.22C386.916 43.82 386.589 42.7 385.936 41.86C385.329 40.9733 384.606 40.53 383.766 40.53C382.786 40.53 381.619 41.09 380.266 42.21C378.913 43.2833 378.236 44.4967 378.236 45.85V105H364.096Z" fill="#ED9C39"/>
</svg>
